<?xml version="1.0" encoding="UTF-8"?>
<svg xmlns="http://www.w3.org/2000/svg" xmlns:xlink="http://www.w3.org/1999/xlink" width="512" height="512" viewBox="0 0 55 58" version="1.1"><!-- Generator: Sketch 51.3 (57544) - http://www.bohemiancoding.com/sketch --><title>002 - Scan In Artwork</title><desc>Created with Sketch.</desc><defs/><g id="Page-1" stroke="none" stroke-width="1" fill="none" fill-rule="evenodd"><g id="002---Scan-In-Artwork" fill-rule="nonzero"><path d="M48,2.22044605e-16 L3,2.22044605e-16 C1.34314575,-2.22044605e-16 0,1.34314575 0,3 L0,8 L25.417,10 L51,8 L51,3 C51,1.34314575 49.6568542,2.22044605e-16 48,2.22044605e-16 Z" id="Shape" fill="#90BAE1"/><polygon id="Shape" fill="#4482C3" points="41 29 25.917 32 10 29 0 8 51 8"/><path d="M43.417,38.417 L26.5,35.083 L0,43 L0,55 C-8.8817842e-16,56.6568542 1.34314575,58 3,58 L48,58 C49.6568542,58 51,56.6568542 51,55 L51,50 L43.417,38.417 Z" id="Shape" fill="#2C3E50"/><path d="M39,54 C38.4477153,54 38,53.5522847 38,53 C38,52.4477153 38.4477153,52 39,52 C39.139,52 42,51.953 42,50 C42,49.4477153 42.4477153,49 43,49 C43.5522847,49 44,49.4477153 44,50 C44,53.164 40.729,54 39,54 Z" id="Shape" fill="#285680"/><path d="M45,54 C44.4477153,54 44,53.5522847 44,53 C44,52.4477153 44.4477153,52 45,52 C45.139,52 48,51.953 48,50 C48,49.4477153 48.4477153,49 49,49 C49.5522847,49 50,49.4477153 50,50 C50,53.164 46.729,54 45,54 Z" id="Shape" fill="#285680"/><polygon id="Shape" fill="#285680" points="38.93 43 0 43 10 29 41 29 46.71 37"/><path d="M41.8,37 L39.239,33.418 C39.0512736,33.1557027 38.748554,33.0000609 38.426,33 L12.574,33 C12.251446,33.0000609 11.9487264,33.1557027 11.761,33.418 L8.335,38.209 C8.22590348,38.361433 8.21123246,38.5620824 8.2969961,38.7287631 C8.38275975,38.8954438 8.55454911,39.0001521 8.742,39 L38.31,39" id="Shape" fill="#90BAE1"/><path d="M12.254,24.43 L7.016,13.43 C6.86865053,13.1206283 6.88996999,12.7573522 7.07249532,12.4673397 C7.25502066,12.1773272 7.57333137,12.0009687 7.916,12 L43.081,12 C43.4236686,12.0009687 43.7419793,12.1773272 43.9245047,12.4673397 C44.10703,12.7573522 44.1283495,13.1206283 43.981,13.43 L38.743,24.43 C38.5775973,24.7772838 38.2276594,24.9989111 37.843,25 L13.157,25 C12.7712565,25.000066 12.4198697,24.7782604 12.254,24.43 Z" id="Shape" fill="#90BAE1"/><path d="M53.743,50 L40.858,50 C40.3645512,49.9998122 39.9450042,49.6397152 39.87,49.152 L38.177,38.152 C38.1326362,37.8635246 38.216517,37.5700645 38.4066355,37.348612 C38.596754,37.1271595 38.8741333,36.9998192 39.166,37 L51.2,37 C51.6658418,36.9997013 52.0701857,37.3211028 52.175,37.775 L54.713,48.775 C54.7814048,49.0712126 54.7113482,49.3824576 54.5226244,49.6207944 C54.3339005,49.8591312 54.0470056,49.9986756 53.743,50 Z" id="Shape" fill="#B0D3F0"/><path d="M46,42 L43,42 C42.4477153,42 42,41.5522847 42,41 C42,40.4477153 42.4477153,40 43,40 L46,40 C46.5522847,40 47,40.4477153 47,41 C47,41.5522847 46.5522847,42 46,42 Z" id="Shape" fill="#3F5C6C"/><path d="M50,46 L44,46 C43.4477153,46 43,45.5522847 43,45 C43,44.4477153 43.4477153,44 44,44 L50,44 C50.5522847,44 51,44.4477153 51,45 C51,45.5522847 50.5522847,46 50,46 Z" id="Shape" fill="#3F5C6C"/><circle id="Oval" fill="#3F5C6C" cx="7" cy="50" r="2"/><circle id="Oval" fill="#3F5C6C" cx="16" cy="50" r="2"/><path d="M6,5 L4,5 C3.44771525,5 3,4.55228475 3,4 C3,3.44771525 3.44771525,3 4,3 L6,3 C6.55228475,3 7,3.44771525 7,4 C7,4.55228475 6.55228475,5 6,5 Z" id="Shape" fill="#E6E7E8"/><path d="M19,5 L10,5 C9.44771525,5 9,4.55228475 9,4 C9,3.44771525 9.44771525,3 10,3 L19,3 C19.5522847,3 20,3.44771525 20,4 C20,4.55228475 19.5522847,5 19,5 Z" id="Shape" fill="#E6E7E8"/><circle id="Oval" fill="#CC4B4C" cx="23" cy="52" r="1"/><circle id="Oval" fill="#4FBA6F" cx="26" cy="52" r="1"/><circle id="Oval" fill="#4FBA6F" cx="29" cy="52" r="1"/></g></g></svg>
