<?xml version="1.0" encoding="iso-8859-1"?>
<!-- Generator: Adobe Illustrator 21.0.0, SVG Export Plug-In . SVG Version: 6.00 Build 0)  -->
<svg xmlns="http://www.w3.org/2000/svg" xmlns:xlink="http://www.w3.org/1999/xlink" version="1.1" id="Capa_1" x="0px" y="0px" viewBox="0 0 510.909 510.909" style="enable-background:new 0 0 510.909 510.909;" xml:space="preserve" width="512" height="512">
<g>
	<path style="fill:#E0E0E0;" d="M510.769,370.403l-45-229.561c-0.69-3.519-3.774-6.057-7.36-6.057H61.5   c-3.48,0-6.504,2.395-7.301,5.783l-54,229.561c-0.524,2.23-0.001,4.578,1.421,6.374c1.423,1.796,3.588,2.843,5.879,2.843h495.909   c2.242,0,4.366-1.003,5.791-2.734C510.625,374.881,511.2,372.604,510.769,370.403z"/>
	<path style="fill:#C4C4C4;" d="M510.769,370.403l-45-229.561c-0.69-3.519-3.774-6.057-7.36-6.057h-37.341   c3.586,0,6.67,2.539,7.36,6.057l44.983,229.474c0.003,0.016,0.006,0.031,0.009,0.047l0.008,0.041   c0.008,0.043,0.01,0.086,0.018,0.128c0.037,0.209,0.069,0.42,0.088,0.634c0.009,0.103,0.01,0.206,0.016,0.309   c0.006,0.124,0.019,0.246,0.019,0.371v7.5h29.841c2.242,0,4.366-1.003,5.791-2.734C510.625,374.881,511.2,372.604,510.769,370.403z   "/>
	<path style="fill:#78777E;" d="M467.071,338.005l-38.105-197.144L89.621,140.59L43.896,337.734c-0.517,2.228,0.011,4.57,1.434,6.36   c1.423,1.791,3.585,2.834,5.872,2.834h408.506c2.238,0,4.36-1,5.785-2.727C466.917,342.476,467.496,340.203,467.071,338.005z"/>
	<path style="fill:#67676B;" d="M394.322,140.834l39.835,206.095h25.551c2.238,0,4.36-1,5.785-2.727   c1.425-1.726,2.004-3.999,1.579-6.197l-38.105-197.144L394.322,140.834z"/>
	<path style="fill:#66BAEA;" d="M399.294,305.296l-25.461-131.725c-0.682-3.528-3.77-6.077-7.364-6.077H149.532   c-3.489,0-6.518,2.406-7.306,5.806l-30.553,131.725c-0.517,2.228,0.011,4.57,1.434,6.36c1.423,1.79,3.585,2.834,5.872,2.834h272.95   c2.238,0,4.36-1,5.785-2.727C399.139,309.766,399.718,307.494,399.294,305.296z"/>
	<path style="fill:#3AAAE4;" d="M366.379,314.219h25.551c2.238,0,4.36-1,5.785-2.727c1.425-1.727,2.004-3.999,1.579-6.197   l-25.461-131.725c-0.682-3.528-3.77-6.077-7.364-6.077h-28.45L366.379,314.219z"/>
	<path style="fill:#50C436;" d="M399.294,305.296l-6.712-34.727c-0.399-2.064-1.646-3.866-3.438-4.967l-43.435-26.689   c-10.504-6.455-23.535-6.422-34.007,0.084l-49.837,30.958c-2.095,1.301-3.416,3.549-3.534,6.012   c-0.118,2.463,0.981,4.826,2.942,6.322l39.834,30.393c1.307,0.997,2.905,1.538,4.549,1.538h86.274c2.238,0,4.36-1,5.785-2.727   C399.139,309.766,399.718,307.494,399.294,305.296z"/>
	<path style="fill:#48A92D;" d="M397.714,311.493c1.425-1.727,2.004-3.999,1.579-6.197l-6.712-34.727   c-0.399-2.064-1.646-3.866-3.438-4.967l-36.496-22.425l13.731,71.042h25.551C394.168,314.219,396.29,313.219,397.714,311.493z"/>
	<path style="fill:#FFDB56;" d="M261.695,192.231c-12.711,0-23.052,10.341-23.052,23.052c0,12.71,10.341,23.051,23.052,23.051   c12.711,0,23.051-10.341,23.051-23.051C284.746,202.572,274.405,192.231,261.695,192.231z"/>
	<path style="fill:#FFC41F;" d="M261.695,192.231c-4.197,0-8.133,1.133-11.526,3.101c6.883,3.992,11.526,11.437,11.526,19.951   c0,8.513-4.643,15.958-11.526,19.95c3.393,1.968,7.329,3.101,11.526,3.101c12.711,0,23.051-10.341,23.051-23.051   C284.746,202.572,274.405,192.231,261.695,192.231z"/>
	<path style="fill:#C4C4C4;" d="M473.409,86.063H37.5c-20.678,0-37.5,16.822-37.5,37.5v18.722c0,4.142,3.358,7.5,7.5,7.5h495.909   c4.142,0,7.5-3.358,7.5-7.5v-18.722C510.909,102.885,494.087,86.063,473.409,86.063z"/>
	<path style="fill:#AAAAAA;" d="M473.409,86.063h-35.031c20.678,0,37.5,16.822,37.5,37.5v18.722c0,4.142-3.358,7.5-7.5,7.5h35.031   c4.142,0,7.5-3.358,7.5-7.5v-18.722C510.909,102.885,494.087,86.063,473.409,86.063z"/>
	<path style="fill:#8E8E8E;" d="M289.349,113.723h-68.074c-18.191,0-32.464,17.094-27.601,36.062H316.95   C321.813,130.817,307.539,113.723,289.349,113.723z"/>
	<path style="fill:#80D862;" d="M233.883,242.524c-11.451-8.735-26.976-8.92-38.631-0.458l-80.679,58.584   c-0.542,0.394-1.34,1.022-2.309,1.827l-0.591,2.547c-0.517,2.228,0.011,4.57,1.434,6.36c1.423,1.79,3.585,2.834,5.872,2.834   h210.389L233.883,242.524z"/>
	<path style="fill:#C4C4C4;" d="M503.409,364.346H7.5c-4.142,0-7.5,3.358-7.5,7.5v15.5c0,20.678,16.822,37.5,37.5,37.5h435.909   c20.678,0,37.5-16.822,37.5-37.5v-15.5C510.909,367.704,507.551,364.346,503.409,364.346z"/>
	<path style="fill:#AAAAAA;" d="M503.409,364.346h-31.168l1.17,5.969c0.003,0.016,0.006,0.031,0.009,0.047l0.008,0.041   c0.008,0.043,0.01,0.086,0.018,0.128c0.037,0.209,0.069,0.42,0.088,0.634c0.009,0.103,0.01,0.206,0.016,0.309   c0.006,0.124,0.019,0.246,0.019,0.371v15.5c0,20.678-16.822,37.5-37.5,37.5h37.341c20.678,0,37.5-16.822,37.5-37.5v-15.5   C510.909,367.704,507.551,364.346,503.409,364.346z"/>
</g>















</svg>
