<?xml version="1.0" encoding="iso-8859-1"?>
<!-- Generator: Adobe Illustrator 19.0.0, SVG Export Plug-In . SVG Version: 6.00 Build 0)  -->
<svg xmlns="http://www.w3.org/2000/svg" xmlns:xlink="http://www.w3.org/1999/xlink" version="1.1" id="Capa_1" x="0px" y="0px" viewBox="0 0 512 512" style="enable-background:new 0 0 512 512;" xml:space="preserve" width="512" height="512">
<g>
	<path style="fill:#6F6571;" d="M386.032,16.254H239.746v73.143h81.27V56.889c0-4.489,3.638-8.127,8.127-8.127h56.889   c4.489,0,8.127-3.639,8.127-8.127V24.381C394.159,19.892,390.52,16.254,386.032,16.254z"/>
	<path style="fill:#5D5360;" d="M459.175,81.27H239.746v56.889h227.556V89.397C467.302,84.908,463.663,81.27,459.175,81.27z"/>
	<path style="fill:#ECEAEC;" d="M69.079,0C55.614,0,44.698,10.916,44.698,24.381V138.16L256,138.159V8.127   C256,3.639,252.361,0,247.873,0H69.079z"/>
	<path style="fill:#DAD8DB;" d="M60.952,1.375c-9.448,3.359-16.254,12.406-16.254,23.006v113.778h16.254V1.375z"/>
	<path style="fill:#857E87;" d="M85.333,512H69.079c-4.488,0-8.127-3.639-8.127-8.127v-16.254H93.46v16.254   C93.46,508.361,89.822,512,85.333,512z"/>
	<path style="fill:#857E87;" d="M442.921,512h-16.254c-4.488,0-8.127-3.639-8.127-8.127v-16.254h32.508v16.254   C451.048,508.361,447.409,512,442.921,512z"/>
	<path style="fill:#ECEAEC;" d="M44.698,219.428v268.191c0,4.488,3.638,8.127,8.127,8.127h406.349c4.489,0,8.127-3.639,8.127-8.127   V219.428H44.698z"/>
	<path style="fill:#DAD8DB;" d="M101.587,479.493c-22.442,0-40.635-18.193-40.635-40.635V219.428H44.698v268.191   c0,4.488,3.639,8.127,8.127,8.127h406.349c4.488,0,8.127-3.639,8.127-8.127v-8.126H101.587z"/>
	<rect x="44.698" y="203.175" style="fill:#6F6571;" width="422.603" height="97.524"/>
	<rect x="44.698" y="211.302" style="fill:#5D5360;" width="422.603" height="24.381"/>
	<rect x="93.46" y="219.429" style="fill:#5D5360;" width="325.079" height="81.27"/>
	<rect x="93.46" y="211.302" style="fill:#4B3F4E;" width="325.079" height="24.381"/>
	<path style="fill:#857E87;" d="M467.302,219.429H44.698c-8.977,0-16.254-7.277-16.254-16.254v-65.016   c0-8.977,7.277-16.254,16.254-16.254h422.603c8.977,0,16.254,7.277,16.254,16.254v65.016   C483.556,212.151,476.278,219.429,467.302,219.429z"/>
	<path style="fill:#6F6571;" d="M312.889,186.921H199.111c-4.488,0-8.127-3.639-8.127-8.127v-65.016   c0-4.488,3.639-8.127,8.127-8.127h113.778c4.488,0,8.127,3.639,8.127,8.127v65.016   C321.016,183.282,317.377,186.921,312.889,186.921z"/>
	<path style="fill:#5D5360;" d="M361.651,162.54h-8.127c-4.492,0-8.127-3.635-8.127-8.127c0-4.492,3.635-8.127,8.127-8.127h8.127   c4.492,0,8.127,3.635,8.127,8.127C369.778,158.905,366.143,162.54,361.651,162.54z"/>
	<path style="fill:#5D5360;" d="M158.476,162.54h-8.127c-4.492,0-8.127-3.635-8.127-8.127c0-4.492,3.635-8.127,8.127-8.127h8.127   c4.492,0,8.127,3.635,8.127,8.127C166.603,158.905,162.968,162.54,158.476,162.54z"/>
	<path style="fill:#5D5360;" d="M158.476,195.048h-8.127c-4.492,0-8.127-3.635-8.127-8.127s3.635-8.127,8.127-8.127h8.127   c4.492,0,8.127,3.635,8.127,8.127S162.968,195.048,158.476,195.048z"/>
	<path style="fill:#5D5360;" d="M402.286,162.54h-8.127c-4.492,0-8.127-3.635-8.127-8.127c0-4.492,3.635-8.127,8.127-8.127h8.127   c4.492,0,8.127,3.635,8.127,8.127C410.413,158.905,406.778,162.54,402.286,162.54z"/>
	<path style="fill:#FF8086;" d="M442.921,162.54h-8.127c-4.492,0-8.127-3.635-8.127-8.127c0-4.492,3.635-8.127,8.127-8.127h8.127   c4.492,0,8.127,3.635,8.127,8.127C451.048,158.905,447.413,162.54,442.921,162.54z"/>
	<path style="fill:#5D5360;" d="M361.651,195.048h-8.127c-4.492,0-8.127-3.635-8.127-8.127s3.635-8.127,8.127-8.127h8.127   c4.492,0,8.127,3.635,8.127,8.127S366.143,195.048,361.651,195.048z"/>
	<path style="fill:#5D5360;" d="M402.286,195.048h-8.127c-4.492,0-8.127-3.635-8.127-8.127s3.635-8.127,8.127-8.127h8.127   c4.492,0,8.127,3.635,8.127,8.127S406.778,195.048,402.286,195.048z"/>
	<path style="fill:#FFE07D;" d="M442.921,195.048h-8.127c-4.492,0-8.127-3.635-8.127-8.127s3.635-8.127,8.127-8.127h8.127   c4.492,0,8.127,3.635,8.127,8.127S447.413,195.048,442.921,195.048z"/>
	<path style="fill:#9B959D;" d="M345.397,463.238H166.603c-8.977,0-16.254,7.277-16.254,16.254v16.254h211.302v-16.254   C361.651,470.515,354.374,463.238,345.397,463.238z"/>
	<rect x="44.698" y="422.603" style="fill:#DAD8DB;" width="422.603" height="16.254"/>
	<rect x="44.698" y="422.603" style="fill:#C8C5C9;" width="16.254" height="16.254"/>
	<path style="fill:#857E87;" d="M345.397,463.238H166.603c-8.977,0-16.254,7.277-16.254,16.254h211.302   C361.651,470.515,354.374,463.238,345.397,463.238z"/>
	<rect x="117.841" y="219.429" style="fill:#6F6571;" width="16.254" height="81.27"/>
	<rect x="117.841" y="219.429" style="fill:#5D5360;" width="16.254" height="16.254"/>
	<rect x="377.905" y="219.429" style="fill:#6F6571;" width="16.254" height="81.27"/>
	<rect x="377.905" y="219.429" style="fill:#5D5360;" width="16.254" height="16.254"/>
	<rect x="125.968" y="251.937" style="fill:#6F6571;" width="260.063" height="16.254"/>
	<path style="fill:#857E87;" d="M174.73,284.444c-4.492,0-8.127-3.635-8.127-8.127v-16.254c0-4.492,3.635-8.127,8.127-8.127   s8.127,3.635,8.127,8.127v16.254C182.857,280.81,179.222,284.444,174.73,284.444z"/>
	<path style="fill:#857E87;" d="M337.27,284.444c-4.492,0-8.127-3.635-8.127-8.127v-16.254c0-4.492,3.635-8.127,8.127-8.127   s8.127,3.635,8.127,8.127v16.254C345.397,280.81,341.762,284.444,337.27,284.444z"/>
	<path style="fill:#857E87;" d="M256,284.444c-4.492,0-8.127-3.635-8.127-8.127v-16.254c0-4.492,3.635-8.127,8.127-8.127   s8.127,3.635,8.127,8.127v16.254C264.127,280.81,260.492,284.444,256,284.444z"/>
	<rect x="207.238" y="121.905" style="fill:#C3DDFF;" width="97.524" height="48.762"/>
	<path style="fill:#A4CCFF;" d="M223.492,146.286v-24.381h-16.254v48.762h97.524v-16.254h-73.143   C227.131,154.413,223.492,150.774,223.492,146.286z"/>
</g>















</svg>
