<?xml version="1.0" encoding="UTF-8"?>
<svg width="88px" height="22px" viewBox="0 0 88 22" version="1.1" xmlns="http://www.w3.org/2000/svg" xmlns:xlink="http://www.w3.org/1999/xlink">
    <!-- Generator: Sketch 53.2 (72643) - https://sketchapp.com -->
    <title>logo</title>
    <desc>Created with Sketch.</desc>
    <g id="logo" stroke="none" stroke-width="1" fill="none" fill-rule="evenodd">
        <g id="Group-15" fill="#3B3B3B">
            <g id="Group-7">
                <g id="Group-3" transform="translate(61.164756, 0.000000)">
                    <path d="M0.835244417,11 C0.835244417,4.92500589 5.7602503,-2.84217094e-14 11.8352444,-2.84217094e-14 C17.9102385,-2.84217094e-14 22.8352444,4.92500589 22.8352444,11 C22.8352444,17.0749941 17.9102385,22 11.8352444,22 C5.7602503,22 0.835244417,17.0749941 0.835244417,11 Z M25.3358132,21 C24.5075994,21 23.8352444,20.3285281 23.8352444,19.5 C23.8352444,18.6714719 24.5075994,18 25.3358132,18 C26.1640271,18 26.8352444,18.6714719 26.8352444,19.5 C26.8352444,20.3285281 26.1640271,21 25.3358132,21 Z M18.8251565,7.78497575 C18.8291917,7.7589487 18.832218,7.73396273 18.8332268,7.70897677 C18.8332268,7.7016892 18.8352444,7.6954427 18.8352444,7.68711405 C18.8352444,7.67357998 18.832218,7.66004592 18.8312093,7.64651186 C18.8291917,7.62360805 18.8281829,7.59966317 18.8251565,7.57571829 C18.8211213,7.55281448 18.8150686,7.5288696 18.8090159,7.5059658 C18.8039719,7.48826741 18.7979192,7.46952793 18.7918664,7.45078846 C18.7827873,7.42684358 18.7726994,7.40289869 18.7616027,7.38103597 C18.7535324,7.36437866 18.745462,7.34772135 18.7363829,7.33210512 C18.7232686,7.30920132 18.7091456,7.28942077 18.6940137,7.26859913 C18.682917,7.25506506 18.6718203,7.23944884 18.658706,7.22591477 C18.6425654,7.20613421 18.6233983,7.18843582 18.6042313,7.17073743 C18.5921258,7.15928553 18.5790115,7.14783363 18.5648885,7.13742281 C18.5416863,7.11972442 18.5174753,7.10410819 18.4912467,7.09057412 C18.4831764,7.08536872 18.4761149,7.07912222 18.4670357,7.07391681 C18.4619918,7.07079357 18.4579566,7.06975249 18.4529127,7.0687114 C18.4276929,7.05517734 18.4004555,7.04476652 18.3722094,7.03643787 C18.3570775,7.03123246 18.3409369,7.02498597 18.325805,7.02186272 C18.301594,7.01457515 18.2783918,7.01249298 18.2521633,7.00832866 C18.2329963,7.00624649 18.2128204,7.00312325 18.1926446,7.00312325 C18.1845743,7.00208216 18.176504,7 18.1694424,7 L13.8931778,7 C13.8770372,7 13.8639229,7.00416433 13.8477822,7.00416433 C13.8255888,7.00624649 13.805413,7.00728757 13.7832196,7.0114519 C13.7610262,7.01457515 13.7408504,7.01978056 13.7196658,7.02602705 C13.6984812,7.03227354 13.6783054,7.03956111 13.6571208,7.04684869 C13.6389625,7.05413626 13.6208043,7.06246491 13.6026461,7.07079357 C13.5814615,7.08224547 13.5602768,7.09369737 13.540101,7.10723143 C13.525978,7.11660117 13.5118549,7.12597091 13.4987406,7.13638173 C13.4765472,7.15303904 13.4553626,7.17073743 13.4351868,7.19051799 C13.4240901,7.19988772 13.4160197,7.21133962 13.4059318,7.22175044 C13.385756,7.24361316 13.3675978,7.26651696 13.3504483,7.29150293 C13.342378,7.30295483 13.3353165,7.31544781 13.3282549,7.3279408 C13.318167,7.34563919 13.304044,7.36125542 13.2959736,7.37999489 L13.2959736,7.37895381 L12.2004267,9.63081394 L10.9777722,12.1429445 C10.9777722,12.1429445 9.9427527,14.2709159 9.81968021,14.5238988 C9.69660773,14.7768817 9.57353524,14.5238988 9.57353524,14.5238988 L6.70554273,8.62825208 C6.70554273,8.62825208 6.58852299,8.37526918 6.85686136,8.37526918 L9.09335077,8.37526918 C9.3667331,8.37526918 9.49081438,8.62825208 9.49081438,8.62825208 L10.9011041,11.5276652 L11.6476093,9.99415152 L10.3745152,7.37895381 C10.3644273,7.35917325 10.3523218,7.34251594 10.3412251,7.32481755 C10.3341636,7.31336565 10.3291196,7.30295483 10.3220581,7.29358509 C10.3038998,7.26651696 10.2827152,7.24048992 10.2605218,7.21758612 C10.2534603,7.20925746 10.2463988,7.19988772 10.2383284,7.19364123 C10.2151262,7.17073743 10.1919241,7.15095687 10.1667043,7.1322174 C10.1566164,7.12388875 10.1455197,7.11660117 10.134423,7.1093136 C10.1122296,7.09369737 10.0880186,7.08120439 10.0627988,7.06975249 C10.047667,7.06142383 10.0315263,7.05413626 10.0163944,7.04788977 C9.99420104,7.03956111 9.96999006,7.03123246 9.94577908,7.02498597 C9.92762084,7.01978056 9.90845381,7.01457515 9.88928679,7.0114519 C9.8660846,7.00728757 9.84288241,7.00624649 9.81867142,7.00416433 C9.80555714,7.00416433 9.79143407,7 9.777311,7 L5.50104641,7 C5.49398487,7 5.48692333,7.00208216 5.4798618,7.00312325 C5.4576684,7.00312325 5.43648379,7.00624649 5.41529918,7.00936974 C5.39209699,7.01249298 5.3688948,7.01457515 5.34569261,7.02186272 C5.32955195,7.02498597 5.31139372,7.03123246 5.29424427,7.03747895 C5.2690245,7.04684869 5.24380473,7.05517734 5.21959375,7.06767032 C5.213541,7.06975249 5.20849705,7.07079357 5.2024443,7.07391681 C5.19235639,7.07912222 5.18428607,7.0864098 5.17419816,7.09265629 C5.15099597,7.10514927 5.12880257,7.11972442 5.10761796,7.13429956 C5.09248609,7.14783363 5.07735423,7.16136769 5.06222237,7.17386068 C5.04507292,7.1894769 5.02893227,7.20613421 5.01279161,7.22279153 C4.99967733,7.23944884 4.98555426,7.25610615 4.97344877,7.27276346 C4.96033449,7.29150293 4.948229,7.30920132 4.93511472,7.32898188 C4.92502681,7.34668027 4.91594769,7.36646083 4.90585978,7.38415922 C4.89577187,7.40498086 4.88770154,7.42580249 4.87963122,7.44766521 C4.87256968,7.46848685 4.86651693,7.48826741 4.86046419,7.51013013 C4.85542023,7.53095177 4.84936749,7.55281448 4.84634112,7.5746772 C4.84230595,7.59862209 4.84028837,7.62360805 4.83927958,7.64755294 C4.83927958,7.661087 4.83524442,7.67462107 4.83524442,7.68711405 C4.83524442,7.6954427 4.837262,7.70064811 4.837262,7.70793569 C4.83827079,7.73396273 4.84129716,7.7589487 4.84533233,7.78393467 C4.8483587,7.8047563 4.84936749,7.82453686 4.85441144,7.8453585 C4.8594554,7.86722122 4.86752573,7.88804285 4.87357847,7.90886449 C4.8816488,7.93280938 4.88871033,7.9546721 4.89879824,7.97653482 C4.90182462,7.98278131 4.90283341,7.9890278 4.90585978,7.99631537 L9.07721012,16.5696248 C9.13571999,16.7195405 9.24265182,16.8507169 9.39397046,16.9298391 C9.42423419,16.9454553 9.45348912,16.9548251 9.48375285,16.9652359 C9.48677922,16.966277 9.48980559,16.967318 9.49283197,16.9683591 C9.52511327,16.9787699 9.55739458,16.9860575 9.59068468,16.9912629 C9.60178138,16.9943862 9.61388687,16.9964683 9.62599236,16.9975094 C9.65222093,16.9995916 9.67643191,17.0006327 9.70165168,16.9995916 C9.7218275,16.9995916 9.74301211,16.9995916 9.76318792,16.9985505 C9.78033737,16.9964683 9.79647802,16.992304 9.81261868,16.9891808 C9.84086482,16.9839754 9.86911097,16.9787699 9.89735711,16.9694002 C9.90542744,16.967318 9.91349777,16.9631537 9.92156809,16.9600305 C9.94678787,16.9506607 9.97402522,16.9423321 9.99924499,16.928798 C10.1495548,16.8507169 10.2574955,16.7205816 10.3160053,16.5696248 L11.8352444,13.4463791 L11.8382708,13.4526256 L13.077066,10.8873998 L13.0790836,10.890523 L14.1796745,8.62825208 C14.1796745,8.62825208 14.3108173,8.37526918 14.5771381,8.37526918 L16.8146363,8.37526918 C17.086001,8.37526918 16.9649461,8.62825208 16.9649461,8.62825208 C16.9649461,8.62825208 14.2200261,14.2698749 14.0969536,14.5228578 C13.9738811,14.7758407 13.8508086,14.5228578 13.8508086,14.5228578 L12.7693848,12.2991068 L12.0248971,13.8367848 L13.3524659,16.5665015 C13.409967,16.7184995 13.5189164,16.8507169 13.6722526,16.9298391 C13.7015076,16.9454553 13.7317713,16.9558661 13.762035,16.9652359 C13.7650614,16.966277 13.767079,16.967318 13.7690966,16.9683591 C13.8023867,16.9787699 13.834668,16.9870986 13.8679581,16.992304 C13.8800636,16.9943862 13.8911603,16.9964683 13.9032657,16.9975094 C13.9284855,16.9995916 13.9526965,17.0006327 13.9789251,16.9995916 C13.9991009,16.9995916 14.0202855,16.9995916 14.0404613,16.9985505 C14.056602,16.9964683 14.0727426,16.9933451 14.0888833,16.9902218 C14.1181382,16.9839754 14.1463844,16.9787699 14.1746305,16.9694002 C14.181692,16.967318 14.1887536,16.9641948 14.1968239,16.9610715 C14.2230525,16.9506607 14.2502898,16.9423321 14.2765184,16.928798 C14.427837,16.8507169 14.5347688,16.7205816 14.5932787,16.5696248 L18.7646291,7.99735645 C18.7676554,7.9890278 18.769673,7.98174022 18.7726994,7.97445265 C18.7817785,7.9546721 18.78884,7.93385046 18.7959016,7.91302882 C18.8039719,7.89012502 18.8110334,7.8682623 18.8160774,7.8453585 C18.8211213,7.82453686 18.8231389,7.8047563 18.8251565,7.78497575 Z" id="Combined-Shape"></path>
                </g>
                <path d="M57,14.5242476 C57,16.9929031 55.0141113,18.9968458 52.5651267,19 L52.5599117,19 L41.5092337,19 C40.9866863,19 40.5632247,18.5752398 40.5632247,18.0484952 C40.5632247,17.5228019 40.9866863,17.0969904 41.5092337,17.0969904 L52.5599117,17.0969904 C53.9679735,17.0969904 55.1100681,15.9467736 55.1100681,14.5242476 C55.1100681,13.1038244 53.9679735,11.9536076 52.5599117,11.9536076 L52.5599117,11.9504534 L44.4390453,11.9504534 C41.9879747,11.9504534 40,9.94651071 40,7.4757524 C40,5.0039427 41.9879747,3 44.4390453,3 L55.4918093,3 C56.0133137,3 56.4357323,3.42476015 56.4357323,3.9515048 C56.4357323,4.47824944 56.0133137,4.90406098 55.4918093,4.90406098 L44.4390453,4.90406098 C43.0299405,4.90406098 41.8888889,6.05848337 41.8888889,7.4757524 C41.8888889,8.89617558 43.0299405,10.045341 44.4390453,10.045341 L44.4390453,10.0495466 L52.5599117,10.0495466 L52.5599117,10.045341 C55.0130683,10.045341 57,12.0513865 57,14.5242476 Z M39,7.47650963 C39,9.94605427 36.9691304,11.948814 34.463609,11.9509166 C34.463609,11.9509166 34.4625424,11.9530193 34.4593425,11.9530193 L27.4536956,11.9530193 L24.8020454,11.9530193 C24.3220605,11.9530193 23.933806,12.3356988 23.933806,12.8087916 L23.933806,15.4213155 L23.9316727,15.4202641 L23.9316727,18.0485577 C23.9316727,18.5742164 23.4986197,19 22.9642364,19 C22.4319864,19 22,18.5742164 22,18.0485577 L22,12.8087916 L22.0021333,12.8087916 C22.0021333,11.2854327 23.2543606,10.0448781 24.8020454,10.0448781 C24.8095119,10.0448781 24.8159117,10.0501347 24.8233781,10.0501347 L34.4593425,10.0501347 L34.4593425,10.0448781 C35.8982306,10.0448781 37.0672606,8.89683948 37.0672606,7.47650963 C37.0672606,6.05828241 35.9014305,4.90814114 34.4604091,4.90393587 C34.4604091,4.90393587 34.4604091,4.90814114 34.4593425,4.90814114 L22.9642364,4.90814114 C22.4319864,4.90814114 22,4.47815231 22,3.95564755 C22,3.42893751 22.4319864,3.00315395 22.9642364,3.00315395 L34.4593425,3.00315395 L34.4593425,3 C36.9680637,3 39,5.00486234 39,7.47650963 Z M19.0481429,3.73754074 L19.0575164,3.7310963 L19.0575164,18.1279852 L19.0450183,18.124763 C19.0450183,18.3460222 18.9866939,18.5694296 18.8387997,18.7520222 C18.5055171,19.1623185 17.9087329,19.2181704 17.5056693,18.8733926 L9.52875822,12.1840593 L1.55288868,18.8733926 C1.15190803,19.2213926 0.554082345,19.1655407 0.219758223,18.7520222 C0.0729055717,18.5694296 0.012498098,18.3460222 0.0135396062,18.124763 L0,18.1322815 L0,3.82346667 L0,3.79554074 L0,3.7310963 L0.006249049,3.7310963 C0.006249049,3.50876296 0.0666565227,3.28642963 0.214550682,3.10491111 C0.547833296,2.69031852 1.14253446,2.63661481 1.54143209,2.98031852 L1.62996028,3.05228148 C1.6320433,3.0555037 1.63516782,3.06194815 1.63829235,3.06517037 L8.35810304,8.70835556 L6.8739539,9.95965185 L1.8872128,5.77720741 L1.8872128,16.0818741 L4.17436473,14.1668 C4.17957228,14.1614296 4.18477982,14.1614296 4.18894585,14.1549852 L6.40944126,12.2903926 L8.03315249,10.9284667 L8.03002797,10.9284667 L9.5131356,9.68254074 L14.8998158,14.2054667 C14.9321026,14.2366148 14.9706384,14.2462815 15.0050082,14.2645407 L17.1713452,16.0818741 L17.1713452,5.77398519 L12.1689814,9.96824444 L10.6733757,8.7148 L17.5119183,2.98031852 C17.9118575,2.63661481 18.5055171,2.69031852 18.8387997,3.10491111 C18.9877354,3.2918 19.0481429,3.51305926 19.0481429,3.73754074 Z" id="Combined-Shape"></path>
            </g>
        </g>
    </g>
</svg>